<svg width="14.166016" height="14.166504" viewBox="0 0 14.166 14.1665" fill="none" xmlns="http://www.w3.org/2000/svg" xmlns:xlink="http://www.w3.org/1999/xlink">
	<desc>
			Created with Pixso.
	</desc>
	<defs/>
	<path id="形状" d="M7.08 0C10.99 0 14.16 3.17 14.16 7.08C14.16 10.99 10.99 14.16 7.08 14.16C5.83 14.16 4.65 13.84 3.63 13.27L3.42 13.14L1.27 13.78C0.75 13.93 0.27 13.48 0.36 12.96L0.38 12.89L1.01 10.74C0.37 9.67 0 8.42 0 7.08C0 3.17 3.17 0 7.08 0ZM7.08 1.41C3.95 1.41 1.41 3.95 1.41 7.08C1.41 8.2 1.73 9.23 2.29 10.11C2.43 10.33 2.49 10.6 2.44 10.87L2.42 10.99L2.1 12.05L3.17 11.74C3.47 11.65 3.79 11.71 4.05 11.87C4.92 12.42 5.96 12.75 7.08 12.75C10.21 12.75 12.75 10.21 12.75 7.08C12.75 3.95 10.21 1.41 7.08 1.41ZM5.03 3.67C5.18 3.6 5.36 3.61 5.51 3.72C5.87 3.98 6.15 4.33 6.39 4.67L6.63 5.01C6.66 5.06 6.7 5.12 6.73 5.17C6.86 5.36 6.85 5.61 6.7 5.78L6.65 5.83L6 6.32C5.93 6.37 5.91 6.45 5.95 6.53C6.09 6.79 6.36 7.2 6.66 7.5C6.96 7.8 7.38 8.08 7.67 8.24C7.73 8.28 7.81 8.27 7.86 8.22L7.89 8.19L8.31 7.54C8.47 7.33 8.78 7.28 9 7.43L9.39 7.7C9.77 7.97 10.14 8.27 10.42 8.64C10.54 8.78 10.56 8.98 10.49 9.14C10.21 9.79 9.5 10.35 8.76 10.32L8.65 10.31L8.51 10.3C8.49 10.3 8.46 10.29 8.43 10.29L8.27 10.26C7.61 10.14 6.56 9.77 5.48 8.68C4.39 7.59 4.02 6.54 3.9 5.89L3.87 5.72L3.85 5.58L3.84 5.45C3.84 5.43 3.84 5.41 3.84 5.4C3.81 4.66 4.37 3.95 5.03 3.67Z" fill="#09244B" fill-opacity="1.000000" fill-rule="nonzero"/>
</svg>
